<?xml version="1.0" encoding="UTF-8" standalone="no"?>
<!-- Created with Inkscape (http://www.inkscape.org/) -->

<svg
   width="196"
   height="196"
   viewBox="0 0 51.858335 51.858333"
   version="1.1"
   id="svg8"
   sodipodi:docname="geoengine-favicon.svg"
   inkscape:version="1.1 (1:1.1+202105261517+ce6663b3b7)"
   xmlns:inkscape="http://www.inkscape.org/namespaces/inkscape"
   xmlns:sodipodi="http://sodipodi.sourceforge.net/DTD/sodipodi-0.dtd"
   xmlns="http://www.w3.org/2000/svg"
   xmlns:svg="http://www.w3.org/2000/svg"
   xmlns:rdf="http://www.w3.org/1999/02/22-rdf-syntax-ns#"
   xmlns:cc="http://creativecommons.org/ns#"
   xmlns:dc="http://purl.org/dc/elements/1.1/">
  <defs
     id="defs2">
    <clipPath
       clipPathUnits="userSpaceOnUse"
       id="clipPath4665">
      <ellipse
         style="opacity:1;stroke:#ffa8f0;stroke-width:0;stroke-miterlimit:4;stroke-dasharray:none;stroke-opacity:1"
         id="ellipse4667"
         cx="20.753256"
         cy="14.144061"
         rx="2.2324216"
         ry="2.281848" />
    </clipPath>
    <clipPath
       clipPathUnits="userSpaceOnUse"
       id="clipPath4665-3">
      <ellipse
         style="opacity:1;stroke:#ffa8f0;stroke-width:0;stroke-miterlimit:4;stroke-dasharray:none;stroke-opacity:1"
         id="ellipse4667-0"
         cx="20.753256"
         cy="14.144061"
         rx="2.2324216"
         ry="2.281848" />
    </clipPath>
  </defs>
  <sodipodi:namedview
     id="base"
     pagecolor="#ffffff"
     bordercolor="#666666"
     borderopacity="1.0"
     inkscape:pageopacity="0"
     inkscape:pageshadow="2"
     inkscape:zoom="5.6568546"
     inkscape:cx="37.83021"
     inkscape:cy="107.56861"
     inkscape:document-units="mm"
     inkscape:current-layer="layer1"
     showgrid="false"
     inkscape:window-width="3840"
     inkscape:window-height="2059"
     inkscape:window-x="0"
     inkscape:window-y="0"
     inkscape:window-maximized="1"
     showguides="false"
     inkscape:guide-bbox="true"
     inkscape:snap-page="false"
     fit-margin-top="0"
     fit-margin-left="0"
     fit-margin-right="0"
     fit-margin-bottom="0"
     inkscape:pagecheckerboard="0"
     units="px"
     width="129px">
    <sodipodi:guide
       position="-30.33318,-13.762915"
       orientation="0,1"
       id="guide4715"
       inkscape:locked="false" />
    <sodipodi:guide
       position="10.652613,2.0917752"
       orientation="0,1"
       id="guide4717"
       inkscape:locked="false" />
    <sodipodi:guide
       position="2.5206289,8.1582352"
       orientation="0,1"
       id="guide4757"
       inkscape:locked="false" />
    <sodipodi:guide
       position="13.37268,7.3541552"
       orientation="0,1"
       id="guide19"
       inkscape:locked="false" />
    <sodipodi:guide
       position="42.516152,9.2303752"
       orientation="1,0"
       id="guide4671"
       inkscape:locked="false" />
  </sodipodi:namedview>
  <metadata
     id="metadata5">
    <rdf:RDF>
      <cc:Work
         rdf:about="">
        <dc:format>image/svg+xml</dc:format>
        <dc:type
           rdf:resource="http://purl.org/dc/dcmitype/StillImage" />
      </cc:Work>
    </rdf:RDF>
  </metadata>
  <g
     inkscape:label="Layer 1"
     inkscape:groupmode="layer"
     id="layer1"
     transform="translate(-4.3378672,-2.4384838)">
    <path
       style="fill:none;fill-opacity:1;fill-rule:nonzero;stroke:#388e3c;stroke-width:6.11296;stroke-miterlimit:4;stroke-dasharray:none;stroke-opacity:1;paint-order:normal"
       d="M 48.006808,27.125049 A 18.983315,18.984248 0 0 1 29.023494,46.1093 18.983315,18.984248 0 0 1 10.04018,27.125049 18.983315,18.984248 0 0 1 29.023494,8.1407971 18.983315,18.984248 0 0 1 48.006808,27.125049 Z"
       id="path4740-9" />
    <path
       style="fill:#388e3c;fill-opacity:1;stroke:#8e388e;stroke-width:0;stroke-miterlimit:4;stroke-dasharray:none;stroke-opacity:1"
       d="m 20.287871,16.741663 c -0.260739,-0.05836 -0.622117,-0.202852 -0.85329,-0.341185 -0.567458,-0.339567 -0.955985,-0.832887 -1.162495,-1.476046 -0.117164,-0.364899 -0.122606,-0.409113 -0.10634,-0.863908 0.01915,-0.535242 0.110471,-0.867498 0.349874,-1.272853 0.27845,-0.471475 0.86739,-0.946622 1.420685,-1.146188 0.325854,-0.117531 1.108124,-0.148813 1.467606,-0.05869 0.944981,0.236915 1.720408,1.027205 1.930019,1.967016 0.372818,1.67156 -0.888106,3.234514 -2.592832,3.213891 -0.20626,-0.0025 -0.41021,-0.01241 -0.453227,-0.02204 z m 0.860307,-0.319635 0.15642,-0.02887 -0.128939,-0.02693 c -0.127112,-0.02656 -0.420203,-0.20566 -0.506304,-0.309404 -0.0243,-0.02928 -0.07219,-0.227361 -0.106442,-0.440196 -0.0633,-0.39333 -0.15914,-0.670764 -0.258909,-0.749428 -0.03038,-0.02395 -0.160223,-0.05535 -0.288537,-0.06977 -0.415445,-0.04669 -0.646558,-0.26593 -0.646558,-0.613357 0,-0.337783 0.127061,-0.53762 0.423619,-0.666258 0.258431,-0.112098 0.350201,-0.095 0.64541,0.120214 0.146138,0.106539 0.299848,0.204545 0.341575,0.21779 0.046,0.0146 0.179674,-0.02476 0.339582,-0.09999 0.329764,-0.155152 0.374482,-0.190056 0.322989,-0.252101 -0.02779,-0.03347 -0.01637,-0.06843 0.03862,-0.118187 0.147775,-0.133736 0.08984,-0.24105 -0.117456,-0.217575 -0.101833,0.01153 -0.243012,0.201985 -0.223888,0.30203 0.03182,0.166428 -0.128017,0.10947 -0.343974,-0.122578 -0.109652,-0.11782 -0.233509,-0.217392 -0.275234,-0.221271 -0.145754,-0.01355 -0.194469,0.006 -0.232789,0.09333 -0.02838,0.06468 -0.07746,0.0912 -0.185244,0.100122 -0.156479,0.01295 -0.208478,-0.06194 -0.06842,-0.09857 0.09363,-0.02448 0.09953,-0.07937 0.01822,-0.169235 -0.05523,-0.06102 -0.04821,-0.0682 0.08798,-0.09011 0.174681,-0.0281 0.336104,-0.130855 0.299247,-0.190489 -0.0304,-0.04921 0.09549,-0.02642 0.289663,0.05244 0.1527,0.06201 0.244028,0.02049 0.299911,-0.136329 0.05304,-0.148842 -0.01922,-0.212717 -0.174361,-0.154155 -0.277548,0.104763 -0.009,-0.232639 0.306754,-0.385539 0.168039,-0.08134 0.177703,-0.08185 0.3007,-0.01561 0.144738,0.07795 0.266536,0.06915 0.283802,-0.02049 0.02362,-0.122613 -0.504197,-0.269324 -0.96892,-0.269324 -0.44559,0 -0.957395,0.145446 -1.260207,0.358127 -0.08935,0.06275 -0.09939,0.08646 -0.06196,0.146385 0.0361,0.05781 0.02543,0.104226 -0.05575,0.242399 -0.121718,0.207159 -0.290471,0.337576 -0.488275,0.377352 -0.126366,0.02541 -0.160424,0.05623 -0.235834,0.213396 -0.122835,0.256006 -0.214157,0.65553 -0.149838,0.65553 0.02661,0 0.09045,0.04479 0.141866,0.09952 0.07789,0.08291 0.08546,0.11065 0.04535,0.166195 -0.238235,0.329991 -0.250771,0.421498 -0.110638,0.807558 0.135365,0.372932 0.324667,0.664053 0.599512,0.921979 0.505965,0.474819 1.289503,0.712782 1.947273,0.591399 z m 0.684334,-0.229973 c 0.502815,-0.247051 0.940175,-0.756923 1.134993,-1.323173 0.09222,-0.26809 0.0928,-0.273895 0.02133,-0.214566 -0.04465,0.03707 -0.06435,0.03067 -0.09776,-0.03175 -0.02302,-0.04299 -0.04183,-0.11236 -0.04183,-0.154155 0,-0.0418 -0.022,-0.09307 -0.04887,-0.113934 -0.05709,-0.04431 -1.110254,-0.141328 -1.165248,-0.107339 -0.05732,0.03543 -0.04409,0.198647 0.02049,0.25223 0.04589,0.03809 0.09528,0.03509 0.24126,-0.01465 0.100955,-0.0344 0.193122,-0.05297 0.204818,-0.04128 0.0117,0.0117 -0.03627,0.121626 -0.106579,0.244291 -0.07031,0.122665 -0.225076,0.418402 -0.343918,0.657192 -0.171897,0.345391 -0.220488,0.485315 -0.237645,0.684335 -0.01185,0.137594 -0.04123,0.275084 -0.06524,0.305537 -0.06913,0.08763 0.142114,0.02535 0.484231,-0.142742 z"
       id="path4579-2"
       inkscape:connector-curvature="0"
       clip-path="url(#clipPath4665-3)"
       transform="matrix(7.2307325,0,0,7.2307325,-120.91269,-76.400588)" />
    <path
       id="path4652-6-5-4-0"
       style="fill:#6abf69;fill-opacity:1;fill-rule:nonzero;stroke:#ffffff;stroke-width:1.32291667;stroke-miterlimit:4;stroke-dasharray:none;stroke-opacity:1"
       d="m 38.874099,27.203001 -2.545636,9.531355 -0.8573,0.317223 c -1.076135,0.401924 -2.312901,1.314942 -3.274758,2.414692 -0.619566,0.707654 -0.835977,1.186391 -1.277116,2.838941 -0.636301,2.383207 -0.518823,3.500001 0.572421,5.541366 0.787982,1.473605 1.556101,2.258642 3.095872,3.164057 2.045108,1.202541 4.892657,1.200722 7.212091,-0.0053 4.399192,-2.28739 5.491576,-8.081309 2.227594,-11.832554 l -0.873752,-0.949486 2.373545,-9.237841 z m -1.804536,12.936617 2.050523,0.547573 2.046893,0.5466 0.314106,1.000832 c 0.171684,0.550945 0.433924,1.48779 0.583965,2.079593 l 0.270865,1.075117 -1.472349,1.436753 -1.475972,1.435784 -2.093121,-0.504966 -2.096738,-0.505935 -0.532496,-2.038527 -0.531507,-2.042165 1.469938,-1.515437 z M 52.008267,10.341137 c -0.08516,-0.03339 -0.172567,-0.04313 -0.274663,-0.0381 -0.54454,0.02545 -0.512559,-0.04852 -1.371432,2.958127 l -0.522488,1.823108 -2.278485,0.612758 -2.281128,0.608159 -1.527855,-1.438147 c -0.84006,-0.792118 -1.620819,-1.564787 -1.734596,-1.71577 -0.141692,-0.187954 -0.02235,-0.95379 0.371896,-2.429101 0.448953,-1.680152 0.519624,-2.247895 0.331911,-2.572446 -0.350389,-0.605551 -0.470468,-0.586672 -1.770819,0.26057 -2.533518,1.650856 -3.972346,5.144786 -3.367775,8.168517 0.279847,1.399838 1.723428,4.0226 2.480018,4.505706 0.383063,0.244322 0.34893,0.388335 -2.532656,11.177507 l -0.129604,0.484339 6.697835,1.788778 0.148091,-0.580887 2.757799,-10.735005 1.476646,-0.62011 c 1.76709,-0.736312 3.532171,-2.259964 4.286695,-3.70517 1.160815,-2.223397 1.195666,-5.252887 0.08926,-7.405344 -0.379132,-0.738165 -0.593167,-1.046666 -0.848502,-1.147451 z"
       inkscape:connector-curvature="0"
       sodipodi:nodetypes="ccccccccccccccccccccccccccccccccccccccccccccccccc" />
    <path
       id="path4652-6-5-4"
       style="fill:#6abf69;fill-opacity:1;fill-rule:nonzero;stroke:none;stroke-width:0.529167;stroke-miterlimit:4;stroke-dasharray:none;stroke-opacity:1"
       d="m 38.874099,27.203001 -2.545636,9.531355 -0.8573,0.317223 c -1.076135,0.401924 -2.312901,1.314942 -3.274758,2.414692 -0.619566,0.707654 -0.835977,1.186391 -1.277116,2.838941 -0.636301,2.383207 -0.518823,3.500001 0.572421,5.541366 0.787982,1.473605 1.556101,2.258642 3.095872,3.164057 2.045108,1.202541 4.892657,1.200722 7.212091,-0.0053 4.399192,-2.28739 5.491576,-8.081309 2.227594,-11.832554 l -0.873752,-0.949486 2.373545,-9.237841 z m -1.804536,12.936617 2.050523,0.547573 2.046893,0.5466 0.314106,1.000832 c 0.171684,0.550945 0.433924,1.48779 0.583965,2.079593 l 0.270865,1.075117 -1.472349,1.436753 -1.475972,1.435784 -2.093121,-0.504966 -2.096738,-0.505935 -0.532496,-2.038527 -0.531507,-2.042165 1.469938,-1.515437 z M 52.008267,10.341137 c -0.08516,-0.03339 -0.172567,-0.04313 -0.274663,-0.0381 -0.54454,0.02545 -0.512559,-0.04852 -1.371432,2.958127 l -0.522488,1.823108 -2.278485,0.612758 -2.281128,0.608159 -1.527855,-1.438147 c -0.84006,-0.792118 -1.620819,-1.564787 -1.734596,-1.71577 -0.141692,-0.187954 -0.02235,-0.95379 0.371896,-2.429101 0.448953,-1.6801524 0.519624,-2.2478953 0.331911,-2.5724456 -0.350389,-0.6055511 -0.470468,-0.5866727 -1.770819,0.2605698 -2.533518,1.6508558 -3.972346,5.1447858 -3.367775,8.1685168 0.279847,1.399838 1.723428,4.0226 2.480018,4.505706 0.383063,0.244322 0.34893,0.388335 -2.532656,11.177507 l -0.129604,0.484339 6.697835,1.788778 0.148091,-0.580887 2.757799,-10.735005 1.476646,-0.62011 c 1.76709,-0.736312 3.532171,-2.259964 4.286695,-3.70517 1.160815,-2.223397 1.195666,-5.252887 0.08926,-7.405344 -0.379132,-0.738165 -0.593167,-1.046666 -0.848502,-1.147451 z"
       inkscape:connector-curvature="0"
       sodipodi:nodetypes="ccccccccccccccccccccccccccccccccccccccccccccccccc" />
  </g>
</svg>
